# xmcd
#
# Track frame offsets:
# 150
# 11851
# 27952
# 39160
# 51454
# 63923
# 76044
# 90845
# 106289
# 116269
# 133070
#
# Disc length: 2058 seconds
#
#
# Revision: 0
# Processed by: cddbd v1.5.2PL0 Copyright (c) Steve Scherf et al.
# Submitted via: FreeRIP 2.951 
#
DISCID=7d08080b
DTITLE=Cory Chisel And The Wandering Sons - Little Bird
DYEAR=1900
DGENRE=Blues
TTITLE0=Gettin' By
TTITLE1=No Better
TTITLE2=New Orleans
TTITLE3=Paint It Down
TTITLE4=In The Spring
TTITLE5=Change Your Mind
TTITLE6=These Four Walls
TTITLE7=Novermer 1942
TTITLE8=Hang Your Head
TTITLE9=Sinner's Waltz
TTITLE10=Pale Blue Dress
EXTD=
EXTT0=
EXTT1=
EXTT2=
EXTT3=
EXTT4=
EXTT5=
EXTT6=
EXTT7=
EXTT8=
EXTT9=
EXTT10=
PLAYORDER=
